<!DOCTYPE svg PUBLIC "-//W3C//DTD SVG 1.1//EN" "http://www.w3.org/Graphics/SVG/1.1/DTD/svg11.dtd">
<!-- Uploaded to: SVG Repo, www.svgrepo.com, Transformed by: SVG Repo Mixer Tools -->
<svg width="800px" height="800px" viewBox="-2 -2 24.00 24.00" xmlns="http://www.w3.org/2000/svg" fill="#000000">
<g id="SVGRepo_bgCarrier" stroke-width="0"/>
<g id="SVGRepo_tracerCarrier" stroke-linecap="round" stroke-linejoin="round" stroke="#CCCCCC" stroke-width="1.6"/>
<g id="SVGRepo_iconCarrier"> <g id="fire" transform="translate(-4 -2)"> <path id="secondary" fill=" #FEA827" d="M12,21c-3.9,0-7-2-7-7s5-5,5-11c3,2,4.37,4.1,5,8a5,5,0,0,0,2-3c1,1,2,4,2,6C19,17.14,17.72,21,12,21Z"/> <path id="primary" d="M12,21c-3.9,0-7-2-7-7s5-5,5-11c3,2,4.37,4.1,5,8a5,5,0,0,0,2-3c1,1,2,4,2,6C19,17.14,17.72,21,12,21Z" fill="none" stroke=" #FEA827" stroke-linecap="round" stroke-linejoin="round" stroke-width="0.66"/> </g> </g>
</svg>